<?xml version="1.0" encoding="UTF-8"?>
<svg id="Capa_1" data-name="Capa 1" xmlns="http://www.w3.org/2000/svg" viewBox="0 0 276.01 80.92">
  <g id="Logo_GL" data-name="Logo GL">
    <path d="M79.51,80.32h-18.32c-11.11-1.49-18.13-12.56-18.55-23.14-.46-11.47.35-23.25.01-34.76-.68-8.61-5.15-16.49-12.14-21.49h23.03c13.96.76,25.23,12.14,25.97,26.09v53.3ZM57.69,51.26c-.86.14-1.68.96-1.82,1.82-.39,2.35,2.56,3.71,4.04,1.8,1.29-1.66-.14-3.97-2.21-3.63ZM66.64,51.26c-.86.14-1.68.96-1.82,1.82-.4,2.38,2.67,3.73,4.09,1.74,1.22-1.7-.24-3.9-2.27-3.56ZM60.51,57.28c-.64-.64-2.77-.6-3.66-.5s-1.37.57-1.69,1.37c-.56,1.35-.89,3.13-1.32,4.55.14.91.91,1.24,1.76,1.13.16.84,0,2.96.52,3.54.48.53,1.32.49,1.54-.23.16-.53.09-1.78.16-2.43.05-.49.46-.57.58-.21.24.77-.39,3.62,1.23,3.19,1.17-.31.74-2.92,1.04-3.85,1.59,0,1.78-.75,1.44-2.1-.2-.82-1.13-4-1.6-4.46ZM70.76,57.28c-.13-.14-.54-.36-.73-.39-1.09-.18-2.99-.18-4.12-.13-.47.02-1.45.07-1.85.15-.5.1-.96.6-1.02,1.1-.12.9,1.11,3.43,1.35,4.52.23,1.01.22,4.2.66,4.76s1.29.56,1.58-.15c.14-1,.05-2.14.16-3.13.06-.54.51-.57.59-.11.08.43-.03,1.05,0,1.53.03.42.1,1.62.25,1.87.51.89,1.61.18,1.74-.7.21-1.32.11-2.75.4-4.08.25-1.17,1.3-3.16,1.37-4.17.02-.33-.16-.83-.39-1.07Z"/>
    <path d="M53.01,80.91h-27.51C12.46,80.07,1.38,70.74.12,57.41L0,35.33c.23-.06.23.1.33.2,1.28,1.26,2.26,2.61,3.74,3.8,11.02,8.92,27.81.84,33,18.35,2.8,9.45,2.57,15.69,12.09,21.25l3.85,1.98Z"/>
    <path d="M37.93,47.93c-.28.07-.19-.05-.26-.15-2.19-3.17-3.75-5.06-7.35-6.78-4.53-2.16-8.12-2.03-12.94-2.37C8.11,37.98.56,30.12,0,20.9V.93s16.09,0,16.09,0c12.52.94,21.27,13.96,21.85,25.74v21.27Z"/>
    <path d="M234.85,43.96l1.14-.03c25.86.73,23.63,38.95-2.93,36.14-22.75-2.41-21.58-35.56,1.79-36.11ZM234.14,51.5c-7.72.74-11.61,9.52-7.89,16.06,4.4,7.74,16.92,6.56,19.3-2.17,2.13-7.79-3.28-14.67-11.42-13.89Z"/>
    <path d="M255.23.14c10.25-.72,19.33,4.93,20.62,15.59,1.69,13.93-10.47,23.01-23.66,20.01-20.02-4.55-17.79-34.14,3.04-35.6ZM256.41,7.56c-6.9.45-10.86,6.45-9.6,13.06,1.94,10.17,16.92,11.07,20.23,1.57,2.62-7.51-2.46-15.17-10.63-14.63Z"/>
    <path d="M120.03,23.08h-8.25v-6.48h17.2c.03,8.2-3.98,17.15-12.58,19.16-13.16,3.08-23.7-5.46-22.87-18.98.76-12.43,11.35-18.69,23.09-16.26,4.81,1,8.44,4.17,10.83,8.36l-7.23,3.94c-.58-.71-.98-1.57-1.6-2.28-2.44-2.82-5.92-3.59-9.5-2.78-9.85,2.23-9.9,19.57.76,21.07,4.48.63,8.96-1.05,10.16-5.74Z"/>
    <path d="M136.4.82c4.1.15,8.34-.2,12.43,0,5.72.27,10.53,2.7,11.45,8.81.85,5.66-1.73,10.18-7.27,11.75l10.48,14.08h-9.84l-9.25-13.43v13.43h-8.01V.82ZM144.41,16.6c2.89.05,6.55-.03,7.57-3.32,1.05-3.4-1.39-6.1-4.8-6.1h-2.77v9.42Z"/>
    <path d="M177.39.82v20.79c-.33,9.29,13.11,9.64,13.2.35V.82s8.12,0,8.12,0v20.44c.18,11.24-7.96,16.61-18.64,14.74-6.28-1.1-10.34-6.38-10.7-12.62V.82h8.01Z"/>
    <path d="M127.92,44.75v20.91c-.16,9.31,13.38,9.3,13.2,0v-20.91s8,0,8,0v22.68c-.5,6.87-5.07,11.9-11.97,12.64-9.17.99-16.43-3.08-17.25-12.76v-22.56h8.01Z"/>
    <path d="M215.79,23.43v12.01h-8.13V.82h12.67s1.98.13,1.98.13c8.2.56,12.06,8.73,9.23,16.04-2.65,6.84-9.51,6.62-15.76,6.45ZM215.79,16.72h4.18c2.11,0,3.89-2.06,4.06-4.07.22-2.54-1.46-5.12-4.18-5.12h-4.06v9.19Z"/>
    <path d="M160.2,69.13c.19-.13,1.36,1.11,1.59,1.29,1.94,1.57,3.97,2.78,6.59,2.59,4.25-.3,6.23-4.87,2.03-7.09-5.45-2.88-12.4-2.27-12.69-10.52-.38-11,11.17-13.89,19.56-9.55.39.2,2.36,1.32,2.36,1.65l-3.59,5.83c-1.95-1.74-4.04-2.71-6.72-2.48-2.03.17-3.52,1.74-3.22,3.82.2,1.45,1.84,2.02,3.02,2.51,4.15,1.72,9.53,2.55,11.31,7.3,1.34,3.59.34,8.91-2.15,11.81-3.89,4.54-12.49,4.85-17.5,2.18-.72-.39-4.43-2.97-4.58-3.56-.1-.4,3.69-4.98,3.99-5.81Z"/>
    <path d="M206.13,53.35c-2.08-1.72-4.2-2.79-6.99-2.46s-4.37,3.95-1.6,5.58c4.98,2.93,12.39,2.5,13.42,10.02,1.41,10.35-7.67,15.45-16.9,13.25-3.05-.73-5.77-2.69-7.91-4.9l4.1-5.71c.17-.05.2.05.3.11,1.29.89,2.19,2.09,3.72,2.87,2.42,1.23,6.64,1.45,8.06-1.34,2.4-4.72-5.28-6.07-8.22-7.22-3.8-1.48-6.07-3.47-6.34-7.8-.51-8.33,5.93-12.6,13.71-11.71,2.92.33,5.9,1.55,8.19,3.35l-3.53,5.94Z"/>
    <polygon points="103.19 44.75 103.19 72.55 113.91 72.55 113.91 79.38 95.18 79.38 95.18 44.75 103.19 44.75"/>
  </g>
</svg>