<?xml version="1.0" encoding="UTF-8"?>
<svg id="Capa_1" data-name="Capa 1" xmlns="http://www.w3.org/2000/svg" viewBox="0 0 306 300">
  <defs>
    <style>
      .cls-1 {
        fill: #fff;
      }
    </style>
  </defs>
  <path class="cls-1" d="M.05,300c3.74-10.82,7.28-21.06,10.81-31.31,5.01-14.52,10.1-29.01,14.91-43.59.6-1.82.37-4.48-.57-6.14C-24.79,131.24,24.95,23.89,125.29,3.14c82.59-17.08,164.61,37.46,178.57,118.74,13.6,79.16-40.87,154.55-121.57,168.25-33.49,5.69-65.41,1.04-95.69-14.12-2.63-1.32-4.86-1.38-7.63-.51-24.76,7.8-49.56,15.47-74.35,23.16-1.31.41-2.63.77-4.58,1.33ZM37.55,263.99c2.7-.75,4.46-1.19,6.18-1.72,13-4.05,25.97-8.23,39.03-12.09,1.85-.55,4.53-.25,6.18.71,30.16,17.64,62.33,22.73,96.51,14.99,64.79-14.67,107.44-78.97,94.56-142.37-13.54-66.69-77.82-109.81-146.48-98.27C44.06,40.28-.06,141.11,50.73,214.66c2,2.9,2.2,5.27,1.06,8.43-4.76,13.27-9.29,26.61-14.24,40.9Z"/>
  <path class="cls-1" d="M82.25,112.43c.48-10.1,4.28-18.67,11-26.24,5.58-6.28,12.92-7.3,20.56-6.84,1.95.12,4.52,2.57,5.45,4.56,4.56,9.75,8.79,19.66,12.8,29.64.68,1.68.36,4.37-.61,5.93-2.41,3.9-5.2,7.66-8.35,11.02-2.86,3.06-3.34,5.63-1.07,9.25,12.1,19.32,28.69,33.32,50.26,41.64,3.12,1.2,5.49.7,7.56-1.8,3.59-4.33,7.38-8.51,10.75-12.99,2.22-2.95,4.83-4,8.09-2.52,10.32,4.67,20.65,9.35,30.74,14.48,1.53.78,2.59,3.96,2.52,5.99-.51,14.93-11.14,26.26-26.13,29.37-8.4,1.74-16.2.64-24.31-1.46-35.29-9.13-61.83-29.77-82.24-58.86-6.81-9.7-13.41-19.43-15.77-31.23-.65-3.27-.84-6.62-1.24-9.93Z"/>
</svg>